<?xml version="1.0" encoding="utf-8"?>
<!DOCTYPE svg PUBLIC "-//W3C//DTD SVG 1.0//EN" "http://www.w3.org/TR/2001/REC-SVG-20010904/DTD/svg10.dtd">
<svg version="1.0" xmlns="http://www.w3.org/2000/svg" width="563px" height="443px" viewBox="0 0 563 443" preserveAspectRatio="xMidYMid meet">
 <g fill="#000000">
  <path d="M265 401.8 c-16.3 -1.8 -38.9 -8.5 -57 -17.1 -35.7 -16.9 -67 -47.4 -83.9 -81.7 -2.3 -4.7 -4.8 -9.6 -5.6 -11 -2.9 -5.5 -9.7 -28 -12.2 -40.4 -2.4 -11.9 -2.7 -15.2 -2.7 -37.1 0 -22.3 0.2 -24.9 2.7 -37 4.3 -20.3 7.8 -30.6 17.5 -50 15.2 -30.4 40.1 -57 70.7 -75.2 6.7 -4 27.2 -13.4 34 -15.6 23.9 -7.7 41.1 -10.1 68 -9.4 21.1 0.5 27.2 1.2 42 4.9 26.5 6.5 50.9 18.5 71.7 35.4 12.6 10.2 16.5 14.1 30.8 31 5.4 6.4 15.5 22.6 20.1 32.4 11.3 24.1 16.3 43.4 18.1 70.2 1.8 27.4 -0.1 45.6 -7.3 70.3 -3.3 11.3 -12.8 33.6 -15.5 36.2 -0.8 0.8 -1.4 1.9 -1.4 2.5 0 0.6 -2.8 5.2 -6.2 10.2 -22.5 33.3 -53.9 57.8 -91.8 71.9 -9.7 3.6 -30.2 8.4 -41.5 9.6 -11.5 1.3 -38.1 1.2 -50.5 -0.1z m27.9 -51.5 c-0.7 -1 -1.5 -2 -1.6 -2.2 -0.2 -0.2 -0.3 0.5 -0.3 1.7 0 1.4 0.6 2.2 1.6 2.2 1.4 0 1.5 -0.3 0.3 -1.7z m1.1 -26.8 c0 -0.9 -0.9 -1.5 -2.5 -1.5 -1.6 0 -2.5 0.6 -2.5 1.5 0 0.9 0.9 1.5 2.5 1.5 1.6 0 2.5 -0.6 2.5 -1.5z m-8 -26.5 l0 -8 -4.5 0 -4.5 0 0 -5.9 c0 -3.3 0.5 -6.3 1 -6.6 0.6 -0.3 1 -3.5 1 -7.1 l0 -6.4 -4 0 c-3.7 0 -4 0.2 -4 2.8 0 4.4 -2.5 11.3 -4.5 12.4 -2.1 1.2 -16.9 0.3 -21 -1.2 -7.1 -2.7 3.4 5.2 23.3 17.5 7.8 4.8 14.5 9.1 14.8 9.6 1.5 2.6 2.4 0.1 2.4 -7.1z m47.8 -23.3 c2.3 -1 4.5 -2.3 4.8 -2.8 0.8 -1.4 -2.1 -1.1 -5.2 0.6 -1.6 0.8 -4.5 1.5 -6.5 1.5 -2.8 0 -3.8 0.5 -4.2 2 -0.5 1.9 -0.2 2 3.1 1.4 2.1 -0.4 5.6 -1.6 8 -2.7z m-13.8 -8 c0 -3.8 3.4 -6 10 -6.5 3.4 -0.2 6.5 -1 7.1 -1.8 0.6 -0.8 1.8 -1.4 2.6 -1.4 1 0 1.3 -0.6 0.9 -1.6 -0.3 -0.9 -0.6 -2 -0.6 -2.5 0 -1 -4.8 -1.1 -14.1 -0.3 -5.4 0.5 -6.7 1 -7.5 2.8 -0.5 1.1 -1.8 2.2 -2.9 2.4 -3.2 0.6 -3.7 1.7 -3 6.6 0.7 4.4 0.9 4.6 4.1 4.6 2.9 0 3.4 -0.3 3.4 -2.3z m-87.6 -9.2 c0.6 -2.7 0.2 -3.2 -3.3 -5.2 l-3.9 -2.2 2 5.2 c1.1 2.8 2.2 5.5 2.5 6 0.8 1.3 2 -0.4 2.7 -3.8z m-71.8 -9.9 c9.4 -2.5 18.1 -4.6 19.4 -4.6 2.1 0 2.2 -0.2 1.3 -6.2 -0.4 -3.5 -0.8 -12.8 -0.8 -20.8 0 -8 0.4 -17.3 0.8 -20.7 0.9 -6.1 0.8 -6.3 -1.3 -6.3 -1.2 0 -8.1 -1.6 -15.4 -3.6 -7.2 -1.9 -19.1 -5.1 -26.5 -7 -7.3 -2 -14.4 -3.9 -15.6 -4.4 -2.3 -0.9 -2.4 -0.6 -3.9 5.8 -5.1 23 -5.3 45.7 -0.5 68.8 l2.1 10.1 11.6 -3.2 c6.5 -1.8 19.4 -5.3 28.8 -7.9z m125.4 -1.6 l0 -12 -31.5 0 -31.5 0 0 4.1 0 4.1 18.3 -0.7 18.2 -0.7 11.2 6.7 c6.3 3.8 11.3 7.5 11.6 8.6 0.3 1.1 1.2 1.9 2.1 1.9 1.4 0 1.6 -1.7 1.6 -12z m177.4 10.3 c3.9 -13.7 5.8 -35.5 4.5 -50.6 -0.9 -10.6 -4.3 -30.4 -5.3 -31.5 -0.2 -0.2 -13.3 3.1 -29 7.2 -15.8 4.2 -29.8 7.6 -31.2 7.6 -2 0 -2.4 0.4 -2 1.8 2.6 8.4 3.3 30.6 1.2 44 l-1.2 8.2 2.5 0 c2.1 0 14.7 3.2 45.1 11.5 14.4 4 14.7 4 15.4 1.8z m-149.4 -39 c0 -3.2 0.3 -8.8 0.7 -12.5 l0.6 -6.8 5.3 0 c6 0 6.3 -0.5 3.9 -6.3 -1.7 -4.1 -2 -13.7 -0.5 -13.7 0.6 0 1 -1.6 1 -3.5 0 -3.7 4.2 -8.8 10.4 -12.6 l3.1 -1.9 -20.7 0 -20.8 0 0 31.5 0 31.5 8.5 0 8.5 0 0 -5.7z m46 -19.7 c0 -13.9 0.3 -28.1 0.6 -31.5 0.7 -6.1 0.7 -6.1 -2 -6.1 -1.8 0 -2.6 0.5 -2.6 1.8 0 0.9 -1.6 4.8 -3.5 8.6 -1.9 3.9 -3.5 7.8 -3.5 8.8 0 2.7 -3.8 9.8 -5.3 9.8 -0.7 0 -1.7 0.8 -2.4 1.9 -0.6 1 -2.4 2.2 -4 2.6 -2.6 0.6 -4.2 2.1 -4.3 3.7 0 0.4 2.4 0.8 5.3 1 l5.2 0.3 0.3 12.3 0.3 12.2 7.9 0 8 0 0 -25.4z m-26.6 18.8 c2.9 -1.1 0.5 -2.4 -4.5 -2.4 -4.6 0 -5.9 0.7 -4.2 2.3 0.8 0.9 6.6 0.9 8.7 0.1z m-87.7 -6.8 c0.8 -1.5 1 -2.5 0.4 -2.1 -0.6 0.3 -2 2.5 -3.2 4.8 -2.2 4.7 0.1 2.4 2.8 -2.7z m18.4 -20.7 c0.4 -0.9 1.3 -3.6 1.8 -5.9 0.8 -3.8 0.7 -4.3 -1 -4.7 -1 -0.3 -1.9 -1.3 -1.9 -2.3 0 -0.9 -0.5 -3.2 -1.1 -4.9 l-1.2 -3.3 -5.3 9.9 c-2.9 5.4 -5.4 10.5 -5.4 11.4 0 0.8 1.9 2.4 4.3 3.6 l4.2 2.1 2.3 -2.2 c1.3 -1.1 2.8 -2.8 3.3 -3.7z m50.9 -40.2 c0 -0.7 -0.6 -2.1 -1.3 -3 -1.1 -1.6 -3.4 -1.7 -22.7 -1.5 l-21.5 0.3 -0.3 2.8 -0.3 2.7 23 0 c18.4 0 23.1 -0.3 23.1 -1.3z"/>
  <path d="M141.6 233.8 c-2.3 -6.6 -6.8 -11.1 -13.4 -13.4 -5 -1.8 -5.2 -2 -5.2 -5.5 0 -3.5 0.2 -3.7 4.6 -4.8 6.1 -1.6 12.6 -8 14.3 -14.4 1.3 -4.5 1.5 -4.7 5.1 -4.7 3.3 0 3.9 0.4 4.5 2.8 1.9 7.9 8.9 15 16.3 16.7 2.9 0.6 3.2 1 3.2 4.3 0 3.6 -0.2 3.8 -5 5.5 -6.6 2.3 -11.3 7 -13.6 13.5 -1.8 4.9 -2 5.2 -5.4 5.2 -3.4 0 -3.6 -0.3 -5.4 -5.2z"/>
  <path d="M430.6 233.8 c-2.3 -6.5 -7 -11.2 -13.6 -13.5 -4.8 -1.7 -5 -1.9 -5 -5.4 0 -3.5 0.2 -3.7 4.5 -4.8 6 -1.5 11.7 -7.1 14.1 -13.8 1.8 -5 2 -5.3 5.4 -5.3 3.4 0 3.6 0.3 5.4 5.3 2.3 6.6 8.1 12.3 14.2 13.9 4.2 1.2 4.4 1.4 4.4 4.8 0 3.4 -0.3 3.6 -5.2 5.4 -6.6 2.3 -11.1 6.8 -13.4 13.4 -1.8 4.9 -2 5.2 -5.4 5.2 -3.4 0 -3.6 -0.3 -5.4 -5.2z"/>
 </g>
 <g fill="#ffffff">
  <path d="M0 221.5 l0 -221.5 281.5 0 281.5 0 0 221.5 0 221.5 -281.5 0 -281.5 0 0 -221.5z m312.5 177.4 c53.3 -5.8 102.4 -35.8 133.3 -81.5 3.4 -5 6.2 -9.6 6.2 -10.2 0 -0.6 0.6 -1.7 1.4 -2.5 2.7 -2.6 12.2 -24.9 15.5 -36.2 7 -24 8.9 -41.5 7.3 -65.6 -2.4 -33.8 -12 -62.2 -30.8 -90.9 -5.2 -7.9 -6 -8.9 -16.5 -20.9 -23.7 -27 -57.1 -47 -93.4 -55.9 -14.3 -3.6 -20.7 -4.4 -39 -4.9 -23.5 -0.7 -41.8 1.9 -65 9.4 -6.8 2.2 -27.3 11.6 -34 15.6 -12.5 7.4 -23.5 15.9 -35.3 27.2 -15.1 14.5 -26.2 29.5 -35.4 48 -9.7 19.5 -13.3 29.7 -17.5 50 -2.5 11.8 -2.7 14.9 -2.7 34 0.1 18.6 0.4 22.5 2.7 34.1 2.5 12.4 9.3 34.9 12.2 40.4 0.8 1.4 3.3 6.3 5.6 11 16.9 34.3 48.2 64.8 83.9 81.7 18.1 8.6 40.7 15.3 57 17.1 12.4 1.3 33 1.4 44.5 0.1z"/>
  <path d="M273.5 394 c-64.3 -6.6 -121.3 -47.9 -146.6 -106.2 -24.5 -56.3 -19.4 -120.5 13.4 -170.7 45.3 -69 129.9 -98.5 208.8 -72.6 12.5 4.1 31.1 13.3 42.4 20.9 47.2 32 74.7 79.8 79.6 137.9 3.5 42.9 -10.8 88.4 -39.1 124.2 -7.3 9.2 -26.5 27.3 -36.5 34.3 -22.2 15.7 -49.1 26.6 -75.5 30.7 -12.3 1.9 -35.1 2.6 -46.5 1.5z m55.2 -8.6 c54.2 -12.1 98.5 -47.6 121.6 -97.4 3.7 -8 9.7 -24.6 9.7 -26.8 0 -0.6 -1.5 -1.3 -3.2 -1.7 -1.8 -0.3 -7.1 -1.7 -11.8 -3 -21 -5.7 -42.7 -11.5 -43.2 -11.5 -0.3 0 -1.8 3.5 -3.3 7.8 -12.4 35 -41.2 61.7 -77.5 71.8 -11.5 3.1 -36.1 4.4 -47.6 2.5 -41.4 -7.1 -76.6 -36.8 -89.3 -75.3 -1.3 -3.8 -2.6 -6.8 -2.9 -6.8 -0.4 0 -8.1 2 -17.2 4.5 -9.1 2.5 -21.7 5.9 -28 7.6 -6.3 1.7 -11.8 3.4 -12.3 3.8 -0.4 0.4 0.4 4.1 1.7 8.3 19.4 59.5 69.9 104.3 131.5 116.9 21 4.3 51 4 71.8 -0.7z m-46.8 -66.7 c-2.5 -2.3 -10.8 -8 -18.5 -12.7 -33 -20.3 -43.5 -31.6 -49.7 -53.5 -1.8 -6.3 -2.1 -11.3 -2.6 -49 l-0.6 -42 -2.9 -5.2 c-1.6 -2.9 -3.3 -5 -3.8 -4.7 -1.5 0.9 -7.8 11.4 -10.8 17.8 -7.4 16.2 -10.7 33.8 -9.7 51.4 1.6 26.7 11 48.6 29.1 67.8 9.3 9.9 23.3 20.2 33.6 24.7 12 5.3 28.2 9.4 37 9.6 l3.5 0 -4.6 -4.2z m31.9 2.2 c33.9 -7.4 60.9 -28.8 75.8 -60.3 10.9 -23.1 13.1 -48.3 6.4 -74.1 -2.1 -8.1 -12.8 -31.3 -15.5 -33.5 -1.9 -1.6 -3.1 -0.7 -5.8 4.3 -2.1 4.1 -2.2 5.2 -2.8 46.2 -0.6 46.5 -0.9 48.2 -7.6 62.2 -6.8 14.3 -14.8 21.1 -53.9 46.1 -4.4 2.9 -9.3 6.6 -10.9 8.2 l-2.9 3 3.7 0 c2.1 0 8.1 -0.9 13.5 -2.1z m-15.1 -7.3 c3.7 -3 12.6 -9 19.7 -13.2 30.1 -18.2 39.7 -28.4 45.7 -48.4 2.1 -7.1 2.2 -10 2.8 -49.5 0.5 -36.1 0.9 -42.5 2.3 -45.7 0.9 -2 1.4 -3.9 1 -4.2 -0.7 -0.8 -156.7 -0.8 -157.5 0 -0.3 0.4 0.1 2.1 1.1 3.8 1.5 2.7 1.8 8.1 2.3 45.1 0.7 46.5 1 48.7 7.5 62.3 6.3 13.1 15.5 21 46.7 40.3 4.8 3 11.4 7.5 14.5 10.1 3.1 2.6 6 4.7 6.4 4.7 0.5 0.1 3.8 -2.3 7.5 -5.3z m-149.3 -82.8 c2.3 -6.5 7 -11.2 13.6 -13.5 2.8 -1 5 -2.1 5 -2.5 0 -0.3 -1.5 -1 -3.2 -1.3 -7.4 -1.7 -14.4 -8.8 -16.3 -16.7 -1 -4 -2.1 -3.4 -3.6 1.9 -1.7 6.4 -8.2 12.8 -14.3 14.4 -2.6 0.6 -4.6 1.4 -4.6 1.8 0 0.3 2.3 1.5 5.2 2.5 6.6 2.3 11.1 6.8 13.4 13.4 1 2.9 2.1 5.2 2.4 5.2 0.3 0 1.4 -2.4 2.4 -5.2z m289 0 c2.3 -6.6 6.8 -11.1 13.4 -13.4 2.9 -1 5.2 -2.1 5.2 -2.4 0 -0.3 -2 -1.1 -4.4 -1.8 -6.1 -1.6 -11.9 -7.3 -14.2 -13.9 -1 -2.9 -2.1 -5.3 -2.4 -5.3 -0.3 0 -1.4 2.4 -2.4 5.3 -2.4 6.7 -8.1 12.3 -14.1 13.8 -2.5 0.6 -4.5 1.4 -4.5 1.8 0 0.3 2.2 1.4 5 2.4 6.6 2.3 11.3 7 13.6 13.5 1 2.8 2.1 5.2 2.4 5.2 0.3 0 1.4 -2.3 2.4 -5.2z m-255 -51.5 c2.4 -7.7 8.6 -20 13.9 -27.8 17 -25.1 42.9 -41.9 75.2 -48.6 7.7 -1.6 30.3 -1.6 38 0 25.1 5.2 45.5 16 62 32.8 11.5 11.8 19.8 24.9 25.6 40.6 1.7 4.5 3.2 8.3 3.3 8.5 0.3 0.3 57.8 -14.8 58.4 -15.3 0.7 -0.6 -4.7 -16.3 -8.7 -25.4 -15.7 -36.5 -47.7 -69.2 -84.6 -86.7 -27.3 -12.9 -55.5 -18.1 -87.5 -16.2 -68.8 4 -131 51.9 -153.1 117.8 -1.7 5.1 -2.7 9.6 -2.2 10.1 0.4 0.4 6.2 2.2 12.8 4 6.6 1.7 19 5.1 27.5 7.5 8.5 2.3 16 4.3 16.6 4.3 0.6 0.1 1.8 -2.5 2.8 -5.6z m82.8 -35.5 c0.2 -1.8 -0.3 -4.3 -1 -5.5 -0.8 -1.2 -1.4 -3.9 -1.5 -5.9 -0.1 -4.5 3.8 -8.4 8.5 -8.4 2.3 0 3.9 -0.8 5.7 -3.1 2.1 -2.5 3.5 -3.1 7.1 -3.3 l4.5 -0.3 -0.3 -3.6 c-0.3 -3.8 0.7 -5.1 3.3 -4.1 1.3 0.5 1.5 1.5 1 4.7 -0.7 3.9 -0.7 4 1.9 3.3 3.3 -0.8 9.1 1.6 10.6 4.3 0.8 1.5 2 2.1 4.5 2.1 5 0 8.7 3.6 8.7 8.3 0 2.1 -0.6 4.7 -1.4 5.9 -1.1 1.6 -1.2 2.9 -0.4 5.4 l1.1 3.4 29 0 29 0 -8 -8.1 c-14.4 -14.5 -30.9 -23.8 -51.4 -29.1 -10.2 -2.6 -13.3 -2.9 -25.6 -2.9 -11.5 0 -15.8 0.5 -24 2.5 -20.6 5.1 -35.7 13.2 -50.2 27 -5.1 4.8 -9.3 9.2 -9.3 9.7 0 0.5 12.9 0.9 28.9 0.9 l29 0 0.3 -3.2z m13.8 -4.7 c0 -0.6 -0.4 -1.3 -1 -1.6 -0.5 -0.3 -1.6 -2.7 -2.3 -5.3 -1.1 -3.6 -1.9 -4.8 -3.6 -5 -3.1 -0.5 -5.1 1.5 -5.1 5.2 0 5.2 2.4 7.6 7.6 7.6 2.4 0 4.4 -0.4 4.4 -0.9z m9.3 -2.3 c0.2 -1.8 0.4 -6 0.3 -9.3 -0.1 -5.7 -0.2 -6 -2.8 -6.3 -5.8 -0.7 -8.6 6.3 -5.2 13.1 2.3 4.6 3.4 5.7 5.4 5.7 1.2 0 1.9 -1 2.3 -3.2z m10.7 -0.3 c3.3 -5.4 3.7 -10.8 1.1 -13.4 -2.7 -2.7 -7.4 -2.5 -7.9 0.3 -0.2 1.1 -0.1 5.2 0.3 9.3 0.6 6.2 1 7.3 2.5 7.3 1 0 2.8 -1.6 4 -3.5z m13 2 c2 -2.4 2.4 -8.9 0.7 -10.4 -2.8 -2.3 -6 -1 -7 2.8 -0.5 1.9 -1.5 4.4 -2.3 5.5 -0.8 1.1 -1.4 2.4 -1.4 2.8 0 1.5 8.7 0.9 10 -0.7z"/>
  <path d="M287.5 358.3 c-0.1 -6 -0.4 -11.8 -0.9 -13 -0.8 -2.1 -0.6 -2.3 3 -2.3 3.8 0 4 0.2 8.4 8 2.5 4.4 4.9 8 5.4 8 1 0 -0.3 -13.1 -1.5 -14.6 -1.3 -1.6 0 -2.4 4.4 -2.4 3.2 0 3.8 0.3 3.3 1.6 -0.3 0.9 -0.6 6.7 -0.6 13 l0 11.4 -3.3 0 c-3 0 -3.6 -0.6 -7.1 -6.5 -3.7 -6.3 -5.8 -8.3 -5.1 -4.7 0.2 0.9 0.6 4.1 0.9 7 l0.5 5.2 -3.7 0 -3.7 0 0 -10.7z"/>
  <path d="M266.2 367.3 c-2 -0.4 -2.2 -0.9 -1.7 -3.5 0.5 -2.1 0.3 -3.3 -0.6 -3.9 -2.1 -1.3 -7.9 -1.1 -8 0.4 -0.3 3.2 -0.5 3.7 -1.1 3.7 -4 0 -5.5 -0.2 -6.7 -0.9 -1.3 -0.8 -1.1 -1.3 0.7 -2.8 3.1 -2.6 10.6 -16.4 10.4 -19.2 -0.2 -2.2 0.1 -2.3 3.6 -1.6 2 0.3 4.1 1 4.5 1.4 0.5 0.5 1.3 5.7 1.8 11.7 0.7 6.8 1.6 11.5 2.5 12.5 2.3 2.6 0.5 3.3 -5.4 2.2z m-2.2 -13.5 c0 -1.3 -0.4 -2.9 -0.9 -3.7 -0.7 -1.1 -1.3 -0.7 -2.5 1.7 -1.5 2.8 -1.5 3.1 0.2 3.5 3 0.8 3.2 0.7 3.2 -1.5z"/>
  <path d="M348 356.6 c0 -1.9 -7.7 -18.3 -9 -19.1 -2 -1.2 -1 -3.3 2.1 -4.4 4.1 -1.4 3.9 -1.4 3.9 0.9 0 1 0.5 3.1 1.2 4.5 1 2.2 1.6 2.5 3.7 2 1.4 -0.4 3.6 -1.3 4.9 -2.1 2.1 -1.4 2.1 -1.6 0.7 -4.4 -0.9 -1.7 -2 -3 -2.5 -3 -2.2 0 -0.8 -3 2 -4.5 3.7 -1.9 4 -1.9 4 0.4 0 2.7 7.7 19.1 9 19.1 2.2 0 0.9 3 -2 4.5 -3.7 1.9 -4 1.9 -4 -0.5 0 -1.7 -2.3 -7.4 -3.5 -8.8 -0.4 -0.4 -8.5 3.7 -8.5 4.3 0 1.2 3.5 7.5 4.2 7.5 1.9 0 0.6 2.8 -1.7 3.8 -3.4 1.6 -4.5 1.5 -4.5 -0.2z"/>
  <path d="M222.8 353.3 c-1.5 -0.9 -3.2 -2.7 -3.9 -4 -3.2 -6 0.7 -16.4 7.5 -19.7 3.8 -1.8 3.9 -1.8 8.4 0 5.7 2.4 7.5 4.9 4.8 7 -2.7 1.9 -3.6 1.8 -3.6 -0.6 0 -2.8 -4.3 -3.7 -7.6 -1.5 -3 2 -5.6 7.6 -5.2 11.3 0.2 1.7 1.3 3.2 3.1 4.2 2.7 1.4 2.9 1.4 4.8 -0.9 l2 -2.5 -2.3 -1.7 c-1.6 -1.3 -2 -2.1 -1.2 -2.9 1.1 -1.1 7.7 1 8.9 3 0.3 0.6 -0.4 2.9 -1.7 5.3 -2.2 3.9 -2.7 4.2 -6.8 4.4 -2.9 0.2 -5.5 -0.3 -7.2 -1.4z"/>
  <path d="M382 337.8 c0 -2 -12.1 -16.8 -13.7 -16.8 -2.4 0 -1.4 -1.8 3.5 -5.7 8.4 -6.9 8 -6.7 9.7 -5.3 2 1.7 1.9 4 -0.2 4 -2 0.1 -6.3 3.3 -6.3 4.8 0 0.5 0.9 1.7 2.1 2.8 2 1.8 2.1 1.8 3.9 -0.6 1.8 -2.4 1.9 -2.4 3.9 -0.6 2.7 2.4 2.6 3.4 -0.1 3.8 -3 0.4 -3.4 2.9 -1 5.8 l1.9 2.3 3 -2.3 c1.7 -1.2 3.4 -3.2 3.7 -4.3 0.5 -2 0.6 -2 2.6 -0.2 1.1 1 2 2.1 2 2.5 0 0.9 -12.7 11 -14 11 -0.5 0 -1 -0.6 -1 -1.2z"/>
  <path d="M193.4 334.1 c-8.2 -5 -8.5 -12.9 -0.7 -20.3 4.6 -4.4 7.8 -5.1 12.8 -2.9 7.9 3.5 9.6 11.4 4 18.7 -4.8 6.3 -10.6 7.9 -16.1 4.5z m9 -5.2 c3 -2.4 5.6 -6.9 5.6 -9.8 0 -2.6 -4.3 -5.5 -6.9 -4.6 -2.8 0.9 -9.1 8.4 -9.1 10.9 0 2.7 2.8 5.6 5.5 5.6 1.2 0 3.4 -0.9 4.9 -2.1z"/>
  <path d="M406 316.6 c0 -1.7 -14.6 -13.6 -16.6 -13.6 -2.6 0 -1.4 -2.6 3.7 -8.3 4.3 -4.9 5.6 -5.7 8.5 -5.7 4 0 8.4 3.9 8.4 7.5 0 1.6 0.9 2.4 3.6 3.3 2 0.6 4.2 0.8 4.9 0.6 2.5 -1 2.3 1.2 -0.5 4.6 l-2.9 3.5 -2.1 -2.2 c-2.4 -2.7 -5.2 -2.9 -7.1 -0.7 -1.1 1.4 -0.9 1.9 1.1 3.4 1.4 1 2.9 1.8 3.4 1.7 1.8 -0.4 1.6 2 -0.4 4.6 -2.3 3 -4 3.5 -4 1.3z m-2.8 -14.3 c2.2 -2 2.3 -4.6 0.2 -6.7 -2.3 -2.3 -5.1 -1.9 -7 1 -1.7 2.5 -1.7 2.6 1.2 4.9 3.5 2.9 3.3 2.9 5.6 0.8z"/>
  <path d="M168.1 308.6 c-5.6 -7 -5.9 -7.6 -3.5 -7.6 2.1 0 17.4 -12 17.4 -13.7 0 -2.1 1.5 -1.5 3.9 1.7 2.3 3.1 2.1 5 -0.5 5 -2 0 -14.4 10 -14.4 11.6 0 0.7 1.4 2.4 3 3.7 1.7 1.4 3 3 3 3.5 0 0.8 -2.2 2.2 -3.5 2.2 -0.2 0 -2.6 -2.9 -5.4 -6.4z"/>
  <path d="M426.5 287 c-1 -1.6 -16.2 -9 -18.5 -9 -2.8 0 -2.5 -2 1.1 -9.3 3.8 -7.5 3.3 -7 5.8 -6.2 2.1 0.6 3 3.5 1.1 3.5 -0.5 0 -1.7 1.4 -2.6 3.2 -1.5 3 -1.5 3.2 0.2 4.5 2.7 2 4.9 1.2 5.2 -2 0.4 -3.1 0.3 -3.1 3.7 -1.5 2.9 1.3 3.1 2.1 1 3.8 -0.8 0.7 -1.5 1.8 -1.5 2.6 0 1.4 3 3.4 5.3 3.4 1.5 0 3.7 -4.1 3.7 -7 0 -2.6 1.4 -3.2 3.6 -1.5 1.8 1.3 1.8 1.6 -1.8 8.9 -3.7 7.4 -5 8.7 -6.3 6.6z"/>
  <path d="M152.6 284 c-3 -3.6 -4.2 -9 -2.7 -11.9 1.6 -2.9 4.5 -1.6 3.6 1.7 -1.1 4.5 2.7 10.4 5.6 8.6 0.5 -0.3 0.9 -2.8 0.9 -5.5 0 -6.7 2.2 -11.7 5.4 -12.5 4.6 -1.1 10.1 4 10.8 10.1 0.3 2.6 0 3 -2.2 3 -2.1 0 -2.5 -0.4 -2.2 -2.6 0.3 -2.9 -3.3 -6.9 -4.7 -5.3 -0.5 0.5 -1.1 3.7 -1.3 7.1 -0.5 7.4 -2.5 10.3 -7.4 10.3 -2.4 0 -3.9 -0.8 -5.8 -3z"/>
  <path d="M282.9 308.7 c-2.4 -1.9 -10.5 -7.1 -17.9 -11.7 -17.1 -10.6 -20.2 -12.9 -26.9 -19.3 -10.9 -10.5 -16.9 -23.7 -17.9 -38.9 l-0.5 -8.8 34.7 0 34.6 0 0 41 c0 22.6 -0.4 41 -0.9 41 -0.4 0 -2.8 -1.5 -5.2 -3.3z m2.1 -25.6 c0 -1.7 -0.4 -3.3 -1 -3.6 -0.5 -0.3 -1.1 -5 -1.2 -10.3 l-0.2 -9.7 -0.3 9.5 c-0.2 5.2 -0.8 9.9 -1.3 10.4 -0.6 0.6 -1 2.3 -1 3.8 0 2.3 0.4 2.8 2.5 2.8 2.1 0 2.5 -0.5 2.5 -2.9z m-20.8 -8.3 c1.7 -1.4 4.4 -10.5 3.5 -11.5 -0.4 -0.3 -3.9 -0.5 -7.9 -0.4 -7 0.1 -7.6 -0.1 -14.8 -4.3 -4.1 -2.4 -7.8 -4.2 -8.1 -4 -0.3 0.1 -1.1 2.8 -1.8 5.9 -1.6 6.9 -0.6 8.4 7.8 11.6 9.4 3.5 18.7 4.7 21.3 2.7z m11.8 -16.4 c-7.5 -2.4 -19.3 -5.4 -21.2 -5.4 -1 0 -1.8 -0.5 -1.8 -1.1 0 -1.3 0.9 -1.1 14.3 2.5 5.5 1.5 10.3 2.6 10.9 2.4 0.5 -0.2 -4.1 -3.4 -10.3 -7.1 -12.5 -7.5 -11.4 -7.3 -32.9 -5.8 l-9.5 0.6 13 7.7 13 7.8 14.5 -0.1 c14.1 -0.1 14.4 -0.1 10 -1.5z"/>
  <path d="M306.8 278.6 c-12.3 -4.5 -15.7 -13 -9.2 -22.9 4.3 -6.6 15.6 -13.4 26.2 -15.8 7.3 -1.6 21.3 -1.3 25.8 0.6 7.9 3.3 11.5 9.2 7.9 12.8 -0.8 0.9 -4.8 2.5 -9 3.8 -8.5 2.5 -11.2 4.7 -9.6 7.7 0.6 1.1 1.7 2.2 2.6 2.6 0.8 0.3 1.5 1.6 1.5 3 0 2.5 -2.7 4.9 -8.5 7.5 -4.4 2 -23.1 2.5 -27.7 0.7z m11.4 -4.3 c2.6 -2.4 2.2 -3.3 -1.5 -3.3 -3.4 0 -5.7 1.5 -5.7 3.7 0 1.9 5 1.6 7.2 -0.4z m-10.1 -5.2 c3.1 -2.6 1.4 -4.6 -3 -3.6 -3.5 0.7 -4.5 1.9 -3.7 4 0.8 2.1 3.9 1.9 6.7 -0.4z m22.4 -0.7 c3.6 -1.7 5.2 -4.1 3.6 -5.7 -1.4 -1.4 -7.6 0.1 -9.7 2.4 -1.8 2 -1.8 2.1 0.1 3.5 2.3 1.7 2 1.7 6 -0.2z m-22.9 -8.5 c1.5 -1.6 1.6 -2.2 0.5 -2.9 -2.8 -1.6 -9.9 1.9 -8.5 4.2 1 1.6 6.1 0.8 8 -1.3z m7.2 -7.2 c3.8 -3 -2.2 -5.3 -6.3 -2.3 -2.8 2 -1.3 4.8 2.2 4 1.6 -0.4 3.4 -1.1 4.1 -1.7z m36.2 -2.5 c2.7 -2.2 1.9 -4.2 -1.4 -4.2 -3 0 -7.2 3.3 -6.2 4.8 1.1 1.8 5.1 1.4 7.6 -0.6z m-22.1 -3.6 c3.1 -3.2 -2.5 -5 -6.6 -2.1 -3.3 2.3 -1.9 4.9 2.1 4.1 1.7 -0.4 3.7 -1.3 4.5 -2z m10.9 -0.2 c3.1 -2.2 2.8 -4.4 -0.6 -4.4 -3.7 0 -6.7 2.2 -5.9 4.4 0.8 2 3.6 2.1 6.5 0z"/>
  <path d="M231 224.6 c0 -1.6 13 -23.2 14.1 -23.4 0.8 -0.1 2.8 0.7 4.6 1.8 l3.2 1.9 -6.2 10.1 -6.2 10 -4.7 0 c-2.7 0 -4.8 -0.2 -4.8 -0.4z"/>
  <path d="M294 190.5 l0 -34.5 36.1 0 c34 0 36.1 0.1 35.4 1.8 -1.7 4.2 -2.4 16.5 -2.5 41 l0 26.2 -34.5 0 -34.5 0 0 -34.5z m47 24 c0 -5.6 -0.3 -6.6 -2.2 -7.6 l-2.3 -1.2 2.3 -1 c1.3 -0.6 2.1 -1.7 2 -2.6 -0.3 -1.3 -2.3 -1.6 -11.6 -1.9 -10.6 -0.3 -11.2 -0.2 -11.2 1.7 0 1.1 0.7 2.4 1.5 2.9 1.4 0.7 1.3 1.1 -0.5 2.7 -1.5 1.4 -2 3 -2 7 0 2.8 0.3 5.5 0.7 5.8 0.3 0.4 5.7 0.7 12 0.7 l11.3 0 0 -6.5z m-10.6 -21.7 c0.4 -1.9 1.4 -2.8 3.6 -3.3 1.7 -0.4 3.6 -1.5 4.3 -2.6 0.6 -1 1.7 -1.9 2.4 -1.9 1.7 0 5.6 -7.8 5 -10.1 -0.3 -1.1 -0.1 -2.1 0.4 -2.4 0.4 -0.3 2.1 -3.3 3.7 -6.5 l2.8 -6 -2.7 0 c-4.4 0 -13 4.3 -17.6 8.8 -3.4 3.3 -4.3 4.9 -4.3 7.6 0 1.9 -0.6 3.6 -1.2 3.9 -1 0.3 -1 1.3 0 4.8 0.8 2.4 1.6 6.2 1.9 8.4 0.3 2.2 0.7 3.6 0.9 3 0.1 -0.5 0.5 -2.2 0.8 -3.7z"/>
  <path d="M321.7 218.3 c-0.4 -0.3 -0.7 -2.4 -0.7 -4.5 l0 -3.9 8.3 0.3 8.2 0.3 0.3 3.4 c0.2 2 -0.2 3.7 -1 4.2 -1.5 1 -14.2 1.2 -15.1 0.2z"/>
  <path d="M250 201.7 c-1.9 -1.1 -3.7 -2.2 -3.8 -2.3 -0.2 -0.1 -0.1 -1.2 0.3 -2.3 0.8 -2.8 3.7 -2.7 7.1 0.2 2.5 2.2 2.6 2.6 1.3 4.5 l-1.5 2.1 -3.4 -2.2z"/>
  <path d="M256.5 198 c-0.4 -0.6 -2.5 -2 -4.8 -3.1 -7.5 -3.8 -7.5 -5.3 0.3 -20.4 3.3 -6.4 6 -12.8 6 -14.1 0 -1.3 0.4 -2.4 1 -2.4 1.5 0 6 8.5 6.7 12.4 0.5 3.2 0.7 3.4 1.8 1.9 1.1 -1.5 1.3 -1.2 2 2.5 0.9 5.7 -1.1 14.6 -4.2 18.2 -3.1 3.7 -7.9 6.4 -8.8 5z"/>
  <path d="M159.3 162.8 c-0.6 -0.7 -4.1 -2.4 -7.7 -3.8 -6.6 -2.4 -7.4 -3.2 -5.7 -5.9 0.7 -1.1 1.3 -1 3.6 0.5 2.7 1.7 2.8 1.7 4.2 -0.1 2 -2.8 1.2 -5 -2 -5.3 -2.9 -0.4 -3.3 -1.2 -1.6 -4.3 0.9 -1.8 1.3 -1.9 2.7 -0.6 1.5 1.3 10.7 5.2 12.4 5.2 1.5 0 1.9 1.5 0.8 3.4 -1 2 -1.3 2 -3.3 0.6 -3.1 -2.1 -4.6 -1.9 -5.9 1.1 -1.3 2.9 0 4.4 4 4.4 2.5 0 2.8 1.7 0.9 4.4 -1.1 1.5 -1.5 1.5 -2.4 0.4z"/>
  <path d="M420.5 160.3 c-2.8 -6.7 -2.6 -7.2 4 -9.4 3.3 -1.1 6.4 -2.5 7 -3 1.8 -1.8 3.3 -0.8 4.9 3.1 2 5 2 7 0.1 7 -0.8 0 -1.5 -0.6 -1.5 -1.3 0 -0.7 -0.6 -2.2 -1.4 -3.3 -1.2 -1.5 -1.7 -1.6 -2.7 -0.7 -1 1 -1 1.5 0 2.7 1 1.2 0.8 1.7 -0.9 2.6 -1.8 1 -2.2 0.9 -2.7 -0.9 -0.3 -1.2 -1.2 -2.1 -1.9 -2.1 -2.3 0 -2.8 2.8 -1.1 5.4 0.9 1.3 1.3 2.6 1 3 -1.5 1.5 -3.4 0.3 -4.8 -3.1z"/>
  <path d="M415.5 147.5 c-3.5 -3.4 -3.4 -8.6 0.2 -11.4 3.4 -2.8 6.9 -3.6 10.2 -2.5 3 1.1 6.7 7.4 4.9 8.5 -1.6 1 -3.6 0 -3.4 -1.8 0 -0.8 -0.6 -2 -1.5 -2.6 -3.9 -2.5 -11.7 3.4 -8.9 6.8 1.9 2.3 4 1.8 4 -1 0 -3.4 1.6 -3.2 3.5 0.4 1.4 2.8 1.4 3.1 -0.7 4.5 -3.2 2.2 -5.5 2 -8.3 -0.9z"/>
  <path d="M168.4 142.7 c-0.9 -2.5 -6.1 -4 -11.4 -3.4 l-5 0.6 1.6 -3 c1.2 -2.5 1.8 -2.8 2.9 -1.9 0.8 0.7 2.3 0.9 3.2 0.5 1.6 -0.6 1.6 -0.8 -0.6 -2.6 -2.3 -1.8 -2.3 -2 -0.6 -4.5 l1.7 -2.6 3 5.2 c2 3.6 4 5.6 6.4 6.6 3 1.2 3.3 1.7 2.4 3.4 -1.4 2.7 -2.9 3.4 -3.6 1.7z"/>
  <path d="M407.4 134.3 c-8.1 -11.1 -12.2 -16.2 -16.1 -19.6 -2.4 -2.1 -4.3 -4.2 -4.3 -4.6 0 -0.4 2.7 -3.5 6.1 -6.9 4.9 -5.1 6.3 -6.1 7.5 -5.1 2.1 1.8 1.8 2.4 -3.7 7.6 l-5.1 4.7 2.6 2.3 c1.4 1.2 2.6 2.7 2.6 3.3 0 1.6 2.8 -0.2 7.8 -5 4.1 -4 4.4 -4.1 5.7 -2.4 1.6 2.2 1.9 3.4 0.7 3.4 -1.3 0 -10.2 7.1 -10.2 8.1 0 0.5 0.9 1.7 2 2.6 1.1 1 2 2.3 2 3.1 0 1.6 2 0.6 8.4 -4.3 l4.6 -3.5 3 4.2 c3.2 4.4 3.4 6.1 0.8 6.6 -1 0.2 -1.8 -0.7 -2.2 -2.2 -0.6 -2.6 -2.9 -3.5 -4.1 -1.6 -0.4 0.6 -0.1 1.8 0.6 2.6 1 1.2 1 1.7 0 2.7 -1 0.9 -1.5 0.8 -2.6 -0.7 -1.5 -1.9 -4.5 -1.6 -4.5 0.6 0 0.6 0.9 2.1 2 3.3 1.8 1.9 1.9 2.4 0.6 3.4 -1.2 1 -1.9 0.5 -4.2 -2.6z"/>
  <path d="M174 132.2 c0 -0.5 -2.7 -2.6 -6 -4.7 -3.3 -2.1 -6 -4.2 -6 -4.5 0 -1.6 7.3 -9 8.9 -9 2.6 0 6.1 2.9 6.1 5.1 0 1.1 -0.7 3.3 -1.5 5 -1.5 2.8 -1.5 3 0.9 4 2.1 1 2.3 1.5 1.5 3 -1 1.9 -3.9 2.7 -3.9 1.1z m-1.2 -11 c0.4 -2.9 -2.4 -4 -4.6 -1.8 -1.6 1.6 -1.6 1.8 0.3 3.2 2.4 1.8 3.9 1.3 4.3 -1.4z"/>
  <path d="M178.5 115.9 c-2.7 -2.4 -3.5 -3.9 -3.5 -6.5 0 -4 3.7 -8.4 7.1 -8.4 4.6 0 10.9 6 10.9 10.5 0 2.6 -5.5 7.5 -8.4 7.5 -1.4 0 -4.1 -1.4 -6.1 -3.1z m10.5 -4 c0 -2.5 -4.3 -6.9 -6.8 -6.9 -5.1 0 -4.8 4.8 0.4 8.9 3.1 2.4 6.4 1.4 6.4 -2z"/>
  <path d="M198 105.8 c0 -0.7 -1.9 -3.3 -4.2 -5.7 -3.8 -4 -4.2 -4.2 -5.4 -2.6 -1.2 1.7 -3.4 1.3 -3.4 -0.6 0 -1 6 -6.7 8.8 -8.3 0.9 -0.5 1.7 -0.4 2.3 0.5 0.5 0.9 0.3 1.7 -0.6 2.2 -2.4 1.3 -1.8 3 3.2 8.1 4.4 4.6 4.5 5 2.8 6.2 -2.3 1.7 -3.5 1.8 -3.5 0.2z"/>
  <path d="M378.5 102.5 c-3.1 -3 -3.2 -6.2 -0.2 -10.6 4.1 -6.1 10.4 -6.3 14.3 -0.5 2.1 3.3 1.2 6.9 -2.6 10.7 -3.7 3.7 -8.1 3.9 -11.5 0.4z m9 -3.6 c3.3 -4 3 -7.3 -0.6 -7.7 -4.6 -0.5 -8.7 6.6 -5.7 9.6 1.9 1.9 3.4 1.4 6.3 -1.9z"/>
  <path d="M205.3 97.8 c-0.6 -1.3 -2.7 -4.5 -4.7 -7.1 -3.5 -4.6 -3.6 -5 -1.9 -6.3 2.4 -1.8 2.7 -1.8 3.8 0.9 1.2 2.6 4.3 2.9 5.8 0.5 0.9 -1.3 0.7 -2.1 -0.6 -3.6 -2.2 -2.4 -2.1 -2.9 0.3 -4.2 1.6 -0.9 2.2 -0.7 2.7 0.7 0.3 1 2.6 4.4 4.9 7.5 4.3 5.7 4.3 5.8 2.2 6.9 -2.2 1.2 -2.5 1 -5.4 -3.8 -1.1 -1.7 -1.2 -1.7 -3.3 0.1 -2.6 2.4 -2.6 3.1 0 5.7 1.6 1.6 1.8 2.3 0.8 3.5 -1.7 2 -3.4 1.7 -4.6 -0.8z"/>
  <path d="M366 93.1 c-3.2 -3.2 -3.6 -5 -1.9 -8.4 2.3 -4.4 5.2 -6.7 8.5 -6.7 3.9 0 8 3 7.1 5.3 -0.9 2.3 -2.4 2.1 -3.7 -0.3 -1.4 -2.6 -3.2 -2.5 -5.7 0.3 -4.2 4.6 -3.6 9.3 1.2 9.9 3.3 0.4 3.3 2.2 0 2.6 -1.7 0.2 -3.4 -0.6 -5.5 -2.7z"/>
  <path d="M217.7 82.8 c-2.2 -4.4 -3.7 -8.1 -3.5 -8.3 1.6 -1.4 9.1 -4.4 9.8 -4 1.8 1.1 1 2.6 -2 3.6 -3.3 1.2 -3.6 1.9 -1.8 3.7 0.8 0.8 1.5 0.8 2.4 0.1 0.7 -0.6 1.8 -0.8 2.4 -0.4 1.5 0.9 1.2 3.5 -0.5 3.5 -1.7 0 -1.9 1.8 -0.6 3.9 0.7 1.1 1.4 1 4 -0.8 2.7 -2 3.2 -2.1 3.7 -0.6 0.8 1.9 1 1.7 -5.1 4.7 l-5 2.5 -3.8 -7.9z"/>
  <path d="M345.6 82.7 c-1.7 -1.2 -1.7 -1.5 0 -5 1.5 -3.1 1.6 -4.4 0.7 -8.4 -0.6 -2.6 -1 -5 -0.7 -5.2 0.2 -0.2 1.5 0.1 2.9 0.7 2.1 1 2.4 1.7 1.9 3.7 -0.7 2.9 1.2 3.4 3.1 0.8 1.1 -1.5 1.7 -1.5 4 -0.5 l2.7 1.2 -4.9 3.4 c-3 2 -5.2 4.4 -5.8 6.4 -1.4 4.1 -1.8 4.4 -3.9 2.9z"/>
  <path d="M234.1 76.5 c-2.2 -6.4 -2.4 -6.6 -5.2 -6 -2.2 0.5 -2.9 0.3 -2.9 -0.8 0 -1.4 8.8 -5.7 11.6 -5.7 2.5 0 2.5 2 0 3 l-2.6 0.9 2.6 5.8 c3.7 8.3 3.7 8.3 2.6 8.3 -0.6 0 -1.6 0.2 -2.4 0.5 -0.9 0.4 -2.1 -1.6 -3.7 -6z"/>
  <path d="M244.3 73.9 c-0.7 -2.8 -1.9 -6.4 -2.7 -8.1 -1.4 -2.8 -1.4 -3 0.4 -3.5 3.1 -0.8 3.3 -0.6 4.7 4.9 0.8 2.9 2 6.5 2.7 8 1.2 2.3 1.2 2.8 -0.1 3.2 -3 1.2 -3.9 0.5 -5 -4.5z"/>
  <path d="M332.3 77.9 c-2.7 -1 -2.7 -0.8 -0.9 -4.5 0.8 -1.6 1.8 -4.6 2.1 -6.6 0.7 -3.4 0.5 -3.8 -1.4 -3.8 -2 0 -2.9 -2.4 -1.3 -3.4 1.5 -0.9 12.7 3.1 12.7 4.5 0 0.9 -0.9 1.3 -2.6 1.1 -2.5 -0.2 -2.8 0.2 -4.5 6.6 -1.8 6.5 -2 6.9 -4.1 6.1z"/>
  <path d="M252.8 74.3 c-4.4 -5.1 -4.9 -10.3 -1.3 -13.8 1.6 -1.7 3.5 -2.5 6 -2.5 1.9 0 3.5 0.3 3.5 0.8 -0.1 1.8 -1.7 2.9 -4 2.8 -2.2 -0.1 -2.5 0.4 -2.8 3.6 -0.2 2 0.2 4.6 0.8 5.8 1.3 2.4 5.2 2.7 7 0.5 1.6 -1.9 3 -1.9 3 -0.1 0 4 -9.3 6.2 -12.2 2.9z"/>
  <path d="M321.7 75.3 c-1.3 -0.3 -1.6 -1 -1.1 -2.1 0.4 -1 1.4 -4.8 2.3 -8.5 1.4 -5.8 1.9 -6.7 3.6 -6.5 2.2 0.3 2.2 1 0.5 7.8 -0.6 2.5 -1.3 5.6 -1.4 7 -0.3 2.6 -1.1 3 -3.9 2.3z"/>
  <path d="M266.5 72.3 c1.4 -3.3 3.6 -13.4 3.3 -15.1 -0.2 -1.2 0.5 -1.8 2.4 -2 2.5 -0.3 3.1 0.3 6.4 7.2 5 10.3 6.7 10.1 6.2 -0.4 -0.3 -8 -0.3 -8 2.2 -8 2.5 0 2.5 0 2.2 7.6 l-0.4 7.7 3.6 -0.6 c3.1 -0.5 3.6 -0.3 3.6 1.4 0 1.7 -0.8 1.9 -9 1.9 -7.2 0 -9 -0.3 -9 -1.4 0 -0.8 -0.5 -1.8 -1 -2.1 -1.7 -1.1 -5 0.5 -5 2.5 0 1.8 -1.9 3 -4.7 3 -1.1 0 -1.3 -0.5 -0.8 -1.7z m8.5 -7.8 c0 -0.8 -0.4 -1.5 -1 -1.5 -0.5 0 -1 0.7 -1 1.5 0 0.8 0.5 1.5 1 1.5 0.6 0 1 -0.7 1 -1.5z"/>
  <path d="M311 73.3 c-3.4 -1.3 -5 -3.7 -5 -7.5 0 -7.7 3.8 -11.4 10.2 -10.1 3.5 0.7 4.4 1.9 2.7 3.9 -1 1.3 -1.4 1.3 -2.8 -0.1 -1.5 -1.3 -2 -1.3 -3.9 0.1 -1.6 1.1 -2.2 2.5 -2.2 5.3 0 4.8 1.9 6.5 6 5.6 3.7 -0.8 4.1 1.1 0.4 2.5 -2.8 1.1 -3.2 1.1 -5.4 0.3z"/>
 </g>
</svg>